<?xml version="1.0" encoding="UTF-8"?>
<svg version="1.1" viewBox="0 0 180 20" xmlns="http://www.w3.org/2000/svg">
    <g fill="none" fill-rule="evenodd">
        <path d="m3.4433 4.3073l9.5381 9.5172c0.11294-0.35515 0.16842-0.72711 0.16842-1.1849h2.165c0 1.4647-0.42011 2.4487-1.1007 3.564-0.66097 1.0874-1.5992 2.0014-2.7055 2.6359-1.1427 0.65689-2.4478 1.0035-3.7726 1.0035-4.1787 0-7.5788-3.3935-7.5788-7.564h2.165c0 2.9798 2.4282 5.4033 5.4138 5.4033 0.94665 0 1.8765-0.24878 2.6915-0.71559 0.54577-0.31181 1.0331-0.71905 1.4392-1.1971l-9.4053-9.387c-0.09113 0.39637-0.1375 0.80392-0.1375 1.2148h-2.1678c0-1.3893 0.3809-2.745 1.1007-3.9246 0.66377-1.0902 1.5992-2.0014 2.7055-2.6359 1.1427-0.65689 2.4478-1.0035 3.7726-1.0035 4.1787 0 7.5788 3.3935 7.5788 7.564h-2.165c0-2.9798-2.4282-5.4033-5.4138-5.4033-0.94665 0-1.8765 0.24878-2.6915 0.71559-0.62054 0.35453-1.1655 0.83242-1.6001 1.3975zm111.47 13.014v-12.246h2.165v12.246h6.1364v2.1607h-14.435v-2.1607h6.1336zm-51.671-4.6966c-2.2384-0.12597-4.3232-1.0546-5.921-2.6519-1.7224-1.7163-2.6719-4.0028-2.6719-6.4319v-2.7869h2.165v2.7869c0 3.8239 3.12 6.9379 6.9542 6.9379h0.27999l3.6606-9.7438 2.0305 0.75752-3.3771 8.9863h1.2794v2.1607h-2.0914l-2.5718 6.8434h-7.9681v-2.1607h6.4669l1.7648-4.6974zm104.76-8.3188l9.537 9.5184c0.11289-0.35508 0.16834-0.72697 0.16834-1.1846h2.165c0 1.4647-0.42011 2.4487-1.1007 3.564-0.66097 1.0874-1.5992 2.0014-2.7055 2.6359-1.1427 0.65689-2.4478 1.0035-3.7726 1.0035-4.1787 0-7.5788-3.3935-7.5788-7.564h2.165c0 2.9798 2.4282 5.4033 5.4138 5.4033 0.94664 0 1.8765-0.24878 2.6915-0.71559 0.54577-0.31181 1.0331-0.71905 1.4392-1.1971l-9.4053-9.387c-0.09113 0.39637-0.1375 0.80392-0.1375 1.2148h-2.1678c0-1.3893 0.3809-2.745 1.1007-3.9246 0.66377-1.0902 1.5992-2.0014 2.7055-2.6359 1.1427-0.65689 2.4478-1.0035 3.7726-1.0035 4.1787 0 7.5788 3.3935 7.5788 7.564h-2.165c0-2.9798-2.4282-5.4033-5.4138-5.4033-0.94664 0-1.8765 0.24878-2.6915 0.71559-0.62 0.35422-1.1646 0.83158-1.5989 1.396zm-141.07 13.015h6.0669v2.1607h-14.435v-2.1607h6.1914v-14.532h-6.1697v-2.1597h8.3465v16.691zm21.584-7.6008v-6.8052h-8.6598v-2.1607h10.825v18.728h-2.165v-3.5637c-1.1492 2.3232-3.5479 3.9243-6.3154 3.9243-3.879 0-7.0354-3.1503-7.0354-7.0245 0-3.8715 3.1564-7.0217 7.0354-7.0217 2.7674 0 5.1662 1.6012 6.3154 3.9233zm100.32 0.43721v7.1644h8.6598v2.1607h-10.828v-18.368h2.1678v2.8406c1.1495-2.3222 3.5478-3.9226 6.3145-3.9226 3.879 0 7.0354 3.1503 7.0354 7.0245 0 3.8715-3.1564 7.0217-7.0354 7.0217-2.7668 0-5.165-1.6004-6.3145-3.9216zm-49.781 7.172h6.1417v2.1912h-14.488v-2.1912h6.1697v-14.54h-6.1697v-2.1597h8.3465v16.7zm-26.457 2.1912v-2.1912h14.488v2.1912h-14.488zm82.552-17.327c-2.6859 0-4.8733 2.1831-4.8733 4.8638s2.1874 4.861 4.8733 4.861 4.8705-2.1803 4.8705-4.861-2.1846-4.8638-4.8705-4.8638zm-112.95 5.7641c-2.6859 0-4.8705 2.1803-4.8705 4.861s2.1846 4.8638 4.8705 4.8638 4.8733-2.1831 4.8733-4.8638-2.1874-4.861-4.8733-4.861zm67.303-5.0435v-2.1607h7.2175v2.1607h-7.2175zm32.116 16.568h-2.165v-11.723c0-2.6695-2.179-4.8442-4.8537-4.8442h-5.974v16.568h-2.165v-18.728h8.1389c3.8678 0 7.0186 3.1419 7.0186 7.005v11.723z" fill="#1D1D1B" />
        <g transform="translate(.15748)"></g>
    </g>
</svg>
